<svg width="43" height="42" viewBox="0 0 43 42" fill="none" xmlns="http://www.w3.org/2000/svg">
<path d="M11.5 21.5L20 30.5L41 2" stroke="#40C5D8" stroke-width="3" stroke-linecap="round"/>
<path fill-rule="evenodd" clip-rule="evenodd" d="M34.8834 5.24371C31.1824 1.98005 26.3224 0 21 0C9.40202 0 0 9.40202 0 21C0 32.598 9.40202 42 21 42C32.598 42 42 32.598 42 21C42 16.948 40.8524 13.1641 38.8645 9.95549L37.5752 11.7053C39.1193 14.453 40 17.6237 40 21C40 31.4934 31.4934 40 21 40C10.5066 40 2 31.4934 2 21C2 10.5066 10.5066 2 21 2C25.8785 2 30.3275 3.83861 33.692 6.86069L34.8834 5.24371Z" fill="#40C5D8"/>
</svg>
